<svg version="1.1" id="Layer_1" xmlns="http://www.w3.org/2000/svg" xmlns:xlink="http://www.w3.org/1999/xlink" x="0px" y="0px"
	 width="100%" viewBox="0 0 815 140" enable-background="new 0 0 815 140" xml:space="preserve">
<path fill="#6366F1" opacity="1.000000" stroke="none"
	d="
M12.657471,106.309036 
	C-12.410084,64.473106 12.015210,11.314460 59.715473,3.176481 
	C96.705231,-3.134216 132.354233,23.328455 138.142288,60.311676 
	C144.357010,100.021194 113.407463,140.183578 68.442863,138.746445 
	C44.615459,137.984879 25.882544,126.841667 12.657471,106.309036 
M32.157486,77.976753 
	C33.100300,81.154175 33.787079,84.435417 35.026794,87.492439 
	C44.218426,110.158195 73.679535,119.255913 94.137230,105.898407 
	C97.310532,103.826447 99.011299,101.290352 97.765450,97.560234 
	C95.469460,90.685921 87.473877,87.230751 80.805336,90.078499 
	C71.797180,93.925362 62.255402,91.483276 56.196373,83.780174 
	C50.595013,76.658928 50.520775,66.546951 56.016098,59.223766 
	C61.539375,51.863342 71.665283,48.225605 79.513931,52.410397 
	C86.440041,56.103298 90.480377,53.983242 94.933586,48.911816 
	C99.572876,43.628487 99.436501,40.007946 93.459030,36.471119 
	C82.322243,29.881573 70.441566,28.835093 58.410851,33.176853 
	C40.155632,39.764977 31.025518,55.378010 32.157486,77.976753 
z"/>
<path fill="#4b5563" opacity="1.000000" stroke="none"
	d="
M623.999268,76.752533 
	C612.543518,76.752449 601.587524,76.752449 590.245178,76.752449 
	C590.245178,86.867203 590.256958,96.342567 590.234924,105.817856 
	C590.230652,107.647667 590.733215,109.899849 589.868408,111.207436 
	C588.581116,113.153801 586.282471,115.657700 584.418762,115.654022 
	C582.526794,115.650307 580.293823,113.148148 578.882385,111.242294 
	C578.048035,110.115654 578.416382,108.023994 578.414734,106.366112 
	C578.392151,83.538383 578.398315,60.710629 578.402527,37.882881 
	C578.402710,36.717365 578.383850,35.546246 578.484619,34.387367 
	C578.820923,30.519657 580.801086,27.979687 584.823242,28.182127 
	C588.622620,28.373360 590.224670,31.027218 590.229614,34.671261 
	C590.243591,44.976330 590.234497,55.281425 590.234497,65.849152 
	C607.733826,65.849152 624.810852,65.849152 642.399414,65.849152 
	C642.399414,57.120152 642.396790,48.666267 642.401428,40.212379 
	C642.402466,38.379959 642.362915,36.544048 642.458679,34.715866 
	C642.659485,30.885441 644.479797,28.085310 648.495972,28.182178 
	C652.523926,28.279331 654.102417,31.119177 654.098694,35.006279 
	C654.074890,59.833511 654.076904,84.660782 654.100220,109.488022 
	C654.103760,113.214050 652.544434,115.766533 648.700684,115.915199 
	C644.660950,116.071449 642.530212,113.516754 642.466553,109.664040 
	C642.315247,100.502075 642.417542,91.336067 642.388794,82.171783 
	C642.383667,80.551521 642.240540,78.931686 642.133789,76.752617 
	C636.065552,76.752617 630.282349,76.752617 623.999268,76.752533 
z"/>
<path fill="#4b5563" opacity="1.000000" stroke="none"
	d="
M784.770386,116.530762 
	C765.510437,115.814163 752.950378,103.948151 752.374146,85.339577 
	C751.853943,68.540024 752.188782,51.711269 752.300964,34.896420 
	C752.337097,29.483995 756.564209,26.350977 760.210205,29.006596 
	C761.755920,30.132452 762.888672,32.799183 762.958191,34.808861 
	C763.254944,43.389366 763.084473,51.986050 763.084473,61.438946 
	C769.764038,56.618702 776.360046,53.880550 783.923035,54.085564 
	C800.835632,54.544022 814.282532,67.781212 814.885071,84.468460 
	C815.509583,101.766708 800.493530,116.526184 784.770386,116.530762 
M771.097412,101.560760 
	C772.085083,102.169449 773.037109,102.847755 774.066162,103.375748 
	C781.857239,107.373116 791.014099,106.207756 797.221497,100.460960 
	C803.695557,94.467308 805.701416,85.890518 802.532593,77.751923 
	C799.525208,70.027939 791.523499,64.829201 782.931885,65.017273 
	C775.178772,65.187004 767.184387,70.473343 764.700867,77.555199 
	C761.541077,86.565056 763.299927,94.539970 771.097412,101.560760 
z"/>
<path fill="#6366F1" opacity="1.000000" stroke="none"
	d="
M363.269745,72.373978 
	C356.887543,81.793221 357.362915,92.016068 364.266022,99.137924 
	C371.595612,106.699776 381.574097,107.717239 391.071014,101.719063 
	C394.281036,99.691666 397.335754,98.878723 399.760162,102.468681 
	C402.222778,106.115166 400.109131,108.682739 397.113953,110.805229 
	C386.274872,118.486176 370.376343,118.281364 360.248718,110.322693 
	C349.089844,101.553619 344.859436,86.906868 349.771240,74.046974 
	C354.709106,61.118870 367.928802,53.046619 382.311066,54.177441 
	C395.119446,55.184517 406.947540,65.842682 409.721588,78.876808 
	C411.690735,88.129059 409.516937,90.874634 400.208649,90.879662 
	C393.711700,90.883171 387.214539,90.907349 380.717834,90.865967 
	C377.016510,90.842392 373.966064,89.719276 373.897308,85.351723 
	C373.827118,80.891518 376.826202,79.888000 380.601746,79.917992 
	C386.253937,79.962906 391.906769,79.929665 398.276947,79.929665 
	C396.677551,72.926041 392.412750,68.866112 386.610199,66.383865 
	C378.573517,62.945866 370.211487,65.167793 363.269745,72.373978 
z"/>
<path fill="#6366F1" opacity="1.000000" stroke="none"
	d="
M171.583786,114.652740 
	C148.946945,105.355980 145.447250,78.991241 159.344559,64.210800 
	C168.940018,54.005566 183.521545,51.066246 195.885178,57.119961 
	C208.610260,63.350651 215.522644,77.018417 213.058502,91.076523 
	C210.727371,104.375763 199.559296,114.845863 185.675369,116.008057 
	C181.167725,116.385376 176.531998,115.232491 171.583786,114.652740 
M188.283691,65.812775 
	C178.329742,63.277317 169.231247,67.006447 164.442520,75.584366 
	C160.142120,83.287506 161.549820,93.255493 167.824295,99.531021 
	C174.458405,106.166237 184.972870,107.511459 193.099167,102.580498 
	C200.019211,98.381477 203.118500,91.806236 202.670029,84.020370 
	C202.166351,75.276451 197.272980,69.245316 188.283691,65.812775 
z"/>
<path fill="#6366F1" opacity="1.000000" stroke="none"
	d="
M288.142700,107.782837 
	C287.447906,110.534134 287.275482,113.250191 285.869537,114.939957 
	C284.974548,116.015663 281.593964,116.435211 280.496826,115.604721 
	C278.788879,114.311844 277.176361,111.741150 277.094360,109.650414 
	C276.729340,100.342262 277.153961,91.004906 276.858948,81.691856 
	C276.437622,68.392494 263.415222,60.440151 251.649368,66.222763 
	C245.265793,69.360123 242.088562,74.829041 241.985001,81.898872 
	C241.855789,90.719818 241.926407,99.544098 241.957138,108.366783 
	C241.971069,112.366646 241.304230,115.990845 236.318893,116.060188 
	C231.272812,116.130363 230.488693,112.325531 230.501633,108.455063 
	C230.534454,98.642784 230.393738,88.807793 231.006363,79.024719 
	C231.942886,64.068825 244.692749,52.838322 259.843842,53.009045 
	C274.885895,53.178535 287.414734,64.963028 287.967682,79.850212 
	C288.307312,88.994034 288.102875,98.158066 288.142700,107.782837 
z"/>
<path fill="#6366F1" opacity="1.000000" stroke="none"
	d="
M479.269379,74.994156 
	C479.589935,87.196274 479.876343,98.991226 479.938507,110.787376 
	C479.957550,114.395950 477.596039,116.241234 474.084351,116.109749 
	C470.734467,115.984337 468.945404,113.938538 468.921417,110.596275 
	C468.854492,101.276283 469.002960,91.952950 468.812775,82.636108 
	C468.587219,71.585121 461.033722,64.197868 450.620880,64.528854 
	C441.456329,64.820168 434.276337,71.753693 434.002777,81.060234 
	C433.738831,90.040741 433.919220,99.033936 433.876221,108.021431 
	C433.849152,113.675568 432.029419,116.256798 428.052094,116.057610 
	C423.113403,115.810280 422.291962,112.263618 422.332886,108.317032 
	C422.432770,98.676208 422.046967,88.983215 422.921783,79.408539 
	C424.262299,64.737328 434.827881,54.316700 448.374664,53.130680 
	C462.867340,51.861851 474.657104,60.082035 479.269379,74.994156 
z"/>
<path fill="#4b5563" opacity="1.000000" stroke="none"
	d="
M704.743347,116.705116 
	C686.258911,116.158852 675.121582,105.265266 674.331116,86.980530 
	C673.964905,78.508522 674.234680,70.007591 674.275208,61.520061 
	C674.293884,57.611603 675.713379,54.231659 680.078003,54.309692 
	C684.278992,54.384796 685.889221,57.518284 685.870483,61.559288 
	C685.830444,70.213295 685.793457,78.868294 685.879822,87.521645 
	C685.977539,97.305389 692.651123,104.659370 701.804871,105.249321 
	C711.661865,105.884598 719.760864,99.402077 720.473083,89.275497 
	C721.137207,79.833809 720.793945,70.318123 720.800232,60.834949 
	C720.802490,57.367393 722.136414,55.027073 725.655457,54.368202 
	C729.000854,53.741844 731.893188,56.293655 731.935791,60.360359 
	C732.042114,70.508286 732.151062,80.669540 731.756531,90.805893 
	C731.289734,102.799294 720.103882,115.907799 704.743347,116.705116 
z"/>
<path fill="#6366F1" opacity="1.000000" stroke="none"
	d="
M309.992432,61.000069 
	C309.992950,54.336006 309.989349,48.171925 309.995544,42.007847 
	C309.999298,38.278984 311.163147,35.178806 315.427856,35.081425 
	C320.031677,34.976299 321.182373,38.183876 321.150269,42.146454 
	C321.114136,46.607353 321.141937,51.068775 321.141937,56.216228 
	C324.252625,56.216228 326.854218,56.218735 329.455841,56.215618 
	C332.943512,56.211437 336.015076,57.052170 336.087097,61.230743 
	C336.163696,65.674507 332.964691,66.622398 329.291992,66.667580 
	C326.816315,66.698036 324.339935,66.673386 321.902588,66.673386 
	C321.902588,76.880188 321.417480,86.661057 322.098755,96.359985 
	C322.461884,101.529549 327.072632,104.074554 332.025726,104.737450 
	C336.003571,105.269836 338.913208,106.603905 338.676605,111.075615 
	C338.487030,114.658905 335.102448,116.445663 330.262512,115.908295 
	C319.298553,114.690994 310.403046,105.260475 310.109192,93.983994 
	C309.827179,83.162346 310.012512,72.328522 309.992432,61.000069 
z"/>
<path fill="#6366F1" opacity="1.000000" stroke="none"
	d="
M501.931091,77.999779 
	C501.931244,65.847679 501.906891,54.195446 501.942963,42.543400 
	C501.958771,37.439201 504.057709,34.636055 507.742950,35.001785 
	C512.236816,35.447762 513.185608,38.607670 513.091797,42.523094 
	C512.988831,46.823101 513.068359,51.127476 513.068359,56.257809 
	C516.349487,56.257809 519.280334,56.100407 522.186707,56.299683 
	C525.445007,56.523087 528.122986,57.778656 528.051697,61.665222 
	C527.984009,65.355591 525.270020,66.347404 522.278687,66.576103 
	C519.483887,66.789780 516.659973,66.621803 513.582825,66.621803 
	C513.582825,76.636246 513.058594,86.238190 513.783203,95.744934 
	C514.205017,101.278229 518.900940,104.147316 524.314026,104.769478 
	C528.310852,105.228859 530.805237,107.130569 530.439392,111.059853 
	C530.061707,115.115227 526.970764,116.168579 523.122620,115.990746 
	C512.456543,115.497849 502.672455,105.952644 502.094666,94.974510 
	C501.806335,89.495216 501.971252,83.992081 501.931091,77.999779 
z"/>
<path fill="#FFFFFF" opacity="1.000000" stroke="none"
	d="
M32.116165,77.527283
	C31.025518,55.378010 40.155632,39.764977 58.410851,33.176853
	C70.441566,28.835093 82.322243,29.881573 93.459030,36.471119
	C99.436501,40.007946 99.572876,43.628487 94.933586,48.911816
	C90.480377,53.983242 86.440041,56.103298 79.513931,52.410397
	C71.665283,48.225605 61.539375,51.863342 56.016098,59.223766
	C50.520775,66.546951 50.595013,76.658928 56.196373,83.780174
	C62.255402,91.483276 71.797180,93.925362 80.805336,90.078499
	C87.473877,87.230751 95.469460,90.685921 97.765450,97.560234
	C99.011299,101.290352 97.310532,103.826447 94.137230,105.898407
	C73.679535,119.255913 44.218426,110.158195 35.026794,87.492439
	C33.787079,84.435417 33.100300,81.154175 32.116165,77.527283
z"/>
</svg>